<svg viewBox="0 0 116.809977778 31.846" width="116.809977778pt" height="31.846pt" xmlns="http://www.w3.org/2000/svg" xmlns:xlink="http://www.w3.org/1999/xlink" xmlns:h5="http://www.w3.org/1999/xhtml"><g transform="matrix(1 0 0 -1 2 20.088)"><use xlink:href="#gFEC259F3342A2C6EF417E1AADF6DB073" x="0" y="0" fill="#000000" fill-rule="nonzero"/></g><g transform="matrix(1 0 0 -1 4.618 16.504)"><use xlink:href="#gABB4E4F3A33BD9E3880D70B2A85BA929" x="0" y="0" fill="#000000" fill-rule="nonzero"/></g><g transform="matrix(1 0 0 -1 9.924 23.546)"><use xlink:href="#gEA9D02AB6C055046EF5453443C0C87D1" x="0" y="0" fill="#000000" fill-rule="nonzero"/></g><g transform="matrix(1 0 0 -1 20.173088889 20.088)"><use xlink:href="#gC3F3E1667FCC0DC2E5A3A0D89DD87009" x="0" y="0" fill="#000000" fill-rule="nonzero"/></g><g transform="matrix(1 0 0 -1 42.947977778 10.61)"><use xlink:href="#g132E8BB142D2715CF88F2BB0B3C5B6AF" x="0" y="0" fill="#000000" fill-rule="nonzero"/><use xlink:href="#g20E554E29F30807D1CBF4606A856EC51" x="7.784" y="0" fill="#000000" fill-rule="nonzero"/><use xlink:href="#g35D6BBE05FABDA56EAAC9AABE6413C3F" x="15.568" y="0" fill="#000000" fill-rule="nonzero"/><use xlink:href="#gE42DEC0B826844A64060DF2086EF82CC" x="27.23" y="0" fill="#000000" fill-rule="nonzero"/><use xlink:href="#g58367B00FD2EF41C7769EFD557431D42" x="33.446" y="0" fill="#000000" fill-rule="nonzero"/><use xlink:href="#g60A5B853D9D71DDF17C0871AB1C87AE0" x="38.934" y="0" fill="#000000" fill-rule="nonzero"/><use xlink:href="#g61A0AD53106A9F7E6A8D4E85F0BAD67D" x="45.934" y="0" fill="#000000" fill-rule="nonzero"/><use xlink:href="#g1462BC444B9152D77B353A83A1EDE004" x="51.38" y="0" fill="#000000" fill-rule="nonzero"/><use xlink:href="#g58367B00FD2EF41C7769EFD557431D42" x="58.38" y="0" fill="#000000" fill-rule="nonzero"/></g><g transform="matrix(1 0 0 -1 36.353977778 29.692)"><use xlink:href="#gCC18E54593B8DDCB9AFE52AB3FF44B1C" x="0" y="0" fill="#000000" fill-rule="nonzero"/><use xlink:href="#gE42DEC0B826844A64060DF2086EF82CC" x="7.784" y="0" fill="#000000" fill-rule="nonzero"/><use xlink:href="#g132E8BB142D2715CF88F2BB0B3C5B6AF" x="14" y="0" fill="#000000" fill-rule="nonzero"/><use xlink:href="#g1462BC444B9152D77B353A83A1EDE004" x="21.784" y="0" fill="#000000" fill-rule="nonzero"/><use xlink:href="#g35D6BBE05FABDA56EAAC9AABE6413C3F" x="28.784" y="0" fill="#000000" fill-rule="nonzero"/><use xlink:href="#gD6BBEF219BB5A8B12BF6CE642665027E" x="40.446" y="0" fill="#000000" fill-rule="nonzero"/><use xlink:href="#g132E8BB142D2715CF88F2BB0B3C5B6AF" x="44.338" y="0" fill="#000000" fill-rule="nonzero"/><use xlink:href="#g60A5B853D9D71DDF17C0871AB1C87AE0" x="52.122" y="0" fill="#000000" fill-rule="nonzero"/><use xlink:href="#g61A0AD53106A9F7E6A8D4E85F0BAD67D" x="59.122" y="0" fill="#000000" fill-rule="nonzero"/><use xlink:href="#g1462BC444B9152D77B353A83A1EDE004" x="64.568" y="0" fill="#000000" fill-rule="nonzero"/><use xlink:href="#g58367B00FD2EF41C7769EFD557431D42" x="71.568" y="0" fill="#000000" fill-rule="nonzero"/></g><path fill="none" stroke="#000000" stroke-width="0.672" stroke-linecap="butt" stroke-linejoin="miter" stroke-miterlimit="4" transform="translate(36.353977778 16.588)" d="M 0 0h 77.056"/><defs><symbol id="gFEC259F3342A2C6EF417E1AADF6DB073" overflow="visible"><path d="M 0 0m 5.978 9.884c -1.806 0 -3.01 -2.142 -3.43 -3.836l -2.128 -8.54c 0 -0.154 0.07 -0.224 0.196 -0.224h 0.07c 0.098 0 0.168 0.042 0.182 0.14l 0.896 3.612c 0.308 -0.812 0.91 -1.218 1.806 -1.218c 0.868 0 1.666 0.266 2.38 0.812c 0.994 0.742 1.498 1.708 1.498 2.87c 0 0.938 -0.322 1.638 -0.966 2.1c 0.798 0.49 1.302 1.12 1.484 1.876c 0.042 0.182 0.07 0.364 0.07 0.518c 0 1.162 -0.938 1.89 -2.058 1.89Z m -1.694 -4.298c 0.07 0.042 0.322 0.056 0.728 0.056c 0.098 0 0.182 -0.014 0.28 -0.028c -0.14 -0.028 -0.266 -0.042 -0.392 -0.042h -0.252c -0.154 0 -0.28 0 -0.364 0.014Z m -2.212 -3.654c 0 0.224 0.028 0.448 0.084 0.672l 0.826 3.36c 0.378 1.512 1.386 3.486 2.982 3.486c 0.798 0 1.19 -0.406 1.19 -1.204c 0 -0.196 -0.028 -0.42 -0.098 -0.686c -0.196 -0.784 -0.56 -1.344 -1.106 -1.666c -0.308 0.112 -0.616 0.168 -0.924 0.168c -0.616 0 -1.246 -0.014 -1.246 -0.518c 0 -0.098 0.042 -0.182 0.112 -0.238c 0.126 -0.098 0.448 -0.154 0.994 -0.154c 0.35 0 0.7 0.056 1.022 0.168c 0.378 -0.308 0.574 -0.784 0.574 -1.428c 0 -0.35 -0.056 -0.756 -0.168 -1.19c -0.322 -1.26 -1.274 -2.464 -2.73 -2.464c -0.952 0 -1.512 0.714 -1.512 1.694Z "/></symbol><symbol id="gABB4E4F3A33BD9E3880D70B2A85BA929" overflow="visible"><path d="M 0 0m 5.404 7.21l 0.238 0.252l -2.142 2.254l -2.142 -2.254l 0.238 -0.252l 1.904 1.442Z "/></symbol><symbol id="gEA9D02AB6C055046EF5453443C0C87D1" overflow="visible"><path d="M 0 0m 2.9694 6.5072c -0.4214 -0.4116 -1.0486 -0.6174 -1.9012 -0.6174v -0.4312c 0.5782 0 1.0388 0.0882 1.3916 0.2548v -4.8804c 0 -0.1274 -0.0098 -0.2058 -0.0392 -0.245c -0.049 -0.1078 -0.343 -0.1666 -0.882 -0.1666h -0.4018v -0.4214l 1.7444 0.0392l 1.7542 -0.0392v 0.4214h -0.4018c -0.539 0 -0.833 0.0588 -0.8918 0.1666c -0.0196 0.0392 -0.0294 0.1176 -0.0294 0.245v 5.3606c 0 0.2646 -0.0392 0.3136 -0.343 0.3136Z "/></symbol><symbol id="gC3F3E1667FCC0DC2E5A3A0D89DD87009" overflow="visible"><path d="M 0 0m 9.772 5.138h -8.652c -0.224 0 -0.336 -0.112 -0.336 -0.322c 0 -0.21 0.112 -0.322 0.336 -0.322h 8.652c 0.224 0 0.336 0.112 0.336 0.322c 0 0.168 -0.154 0.322 -0.336 0.322Z m 0 -2.632h -8.652c -0.224 0 -0.336 -0.112 -0.336 -0.322c 0 -0.21 0.112 -0.322 0.336 -0.322h 8.652c 0.224 0 0.336 0.112 0.336 0.322c 0 0.182 -0.154 0.322 -0.336 0.322Z "/></symbol><symbol id="g132E8BB142D2715CF88F2BB0B3C5B6AF" overflow="visible"><path d="M 0 0m 4.396 5.782c 0.63 0 0.952 -0.49 0.952 -1.484v -3.192c 0 -0.266 -0.042 -0.434 -0.14 -0.49c -0.098 -0.056 -0.406 -0.084 -0.924 -0.084v -0.532l 1.61 0.042l 1.596 -0.042v 0.532c -0.448 0 -0.742 0.014 -0.882 0.056c -0.14 0.042 -0.196 0.14 -0.196 0.308v 2.618c 0 0.658 -0.014 1.12 -0.056 1.386c -0.14 0.854 -0.77 1.288 -1.876 1.288c -0.882 0 -1.54 -0.42 -1.974 -1.26v 1.26l -2.058 -0.154v -0.532c 0.504 0 0.812 -0.042 0.924 -0.126c 0.112 -0.084 0.154 -0.266 0.154 -0.588v -3.682c 0 -0.266 -0.056 -0.434 -0.154 -0.49c -0.098 -0.056 -0.406 -0.084 -0.924 -0.084v -0.532l 1.61 0.042l 1.596 -0.042v 0.532c -0.518 0 -0.812 0.028 -0.91 0.084c -0.098 0.056 -0.154 0.224 -0.154 0.49v 2.52c 0 1.134 0.714 2.156 1.806 2.156Z "/></symbol><symbol id="g20E554E29F30807D1CBF4606A856EC51" overflow="visible"><path d="M 0 0m 3.738 0.252c -0.966 0 -1.148 0.406 -1.148 1.316v 4.62l -2.142 -0.154v -0.532c 0.546 0 0.868 -0.056 0.952 -0.154c 0.084 -0.098 0.126 -0.448 0.126 -1.064v -2.058c 0 -0.546 0.042 -0.966 0.14 -1.288c 0.21 -0.728 0.98 -1.092 2.002 -1.092c 0.756 0 1.33 0.35 1.722 1.064v -1.064l 2.1 0.154v 0.532c -0.504 0 -0.798 0.028 -0.91 0.112c -0.112 0.084 -0.168 0.28 -0.168 0.602v 4.942l -2.128 -0.154v -0.532c 0.49 0 0.784 -0.042 0.896 -0.126c 0.112 -0.084 0.168 -0.266 0.168 -0.588v -2.45c 0 -1.106 -0.588 -2.086 -1.61 -2.086Z "/></symbol><symbol id="g35D6BBE05FABDA56EAAC9AABE6413C3F" overflow="visible"><path d="M 0 0m 4.41 5.782c 0.644 0 0.966 -0.49 0.966 -1.484v -3.192c 0 -0.266 -0.042 -0.434 -0.14 -0.49c -0.098 -0.056 -0.42 -0.084 -0.938 -0.084v -0.532l 1.624 0.042l 1.61 -0.042v 0.532c -0.518 0 -0.826 0.028 -0.924 0.084c -0.098 0.056 -0.154 0.224 -0.154 0.49v 2.52c 0 1.12 0.728 2.156 1.806 2.156c 0.658 0 0.98 -0.49 0.98 -1.484v -3.192c 0 -0.266 -0.056 -0.434 -0.154 -0.49c -0.098 -0.056 -0.42 -0.084 -0.938 -0.084v -0.532l 1.624 0.042l 1.61 -0.042v 0.532c -0.448 0 -0.742 0.014 -0.882 0.056c -0.14 0.042 -0.196 0.14 -0.196 0.308v 2.618c 0 0.658 -0.028 1.12 -0.07 1.386c -0.14 0.854 -0.77 1.288 -1.876 1.288c -0.882 0 -1.54 -0.406 -1.988 -1.232c -0.196 0.826 -0.812 1.232 -1.862 1.232c -0.882 0 -1.554 -0.42 -2.002 -1.26v 1.26l -2.058 -0.154v -0.532c 0.504 0 0.812 -0.042 0.924 -0.126c 0.112 -0.084 0.154 -0.266 0.154 -0.588v -3.682c 0 -0.266 -0.056 -0.434 -0.154 -0.49c -0.098 -0.056 -0.406 -0.084 -0.924 -0.084v -0.532l 1.624 0.042l 1.61 -0.042v 0.532c -0.518 0 -0.84 0.028 -0.938 0.084c -0.098 0.056 -0.154 0.224 -0.154 0.49v 2.52c 0 1.134 0.742 2.156 1.82 2.156Z "/></symbol><symbol id="gE42DEC0B826844A64060DF2086EF82CC" overflow="visible"><path d="M 0 0m 5.81 3.514c 0 1.61 -0.938 2.758 -2.506 2.758c -0.84 0 -1.54 -0.322 -2.114 -0.98c -0.532 -0.616 -0.798 -1.358 -0.798 -2.212c 0 -0.882 0.294 -1.624 0.882 -2.268c 0.588 -0.644 1.316 -0.966 2.184 -0.966c 0.798 0 1.414 0.28 1.834 0.826c 0.35 0.462 0.518 0.798 0.518 1.022c 0 0.14 -0.084 0.21 -0.238 0.21c -0.112 0 -0.182 -0.07 -0.224 -0.224c -0.308 -0.924 -0.91 -1.386 -1.806 -1.386c -0.63 0 -1.12 0.294 -1.498 0.896c -0.266 0.434 -0.392 1.092 -0.406 1.988h 3.78c 0.308 0 0.392 0.028 0.392 0.336Z m -1.246 1.372c 0.154 -0.462 0.224 -0.91 0.224 -1.316h -3.136c 0.042 0.924 0.28 1.554 0.7 1.876c 0.35 0.28 0.658 0.42 0.952 0.42c 0.63 0 1.05 -0.322 1.26 -0.98Z "/></symbol><symbol id="g58367B00FD2EF41C7769EFD557431D42" overflow="visible"><path d="M 0 0m 5.096 5.292c 0 0.546 -0.518 0.896 -1.064 0.896c -0.714 0 -1.26 -0.42 -1.624 -1.274v 1.274l -2.016 -0.154v -0.532c 0.49 0 0.784 -0.042 0.896 -0.126c 0.112 -0.084 0.168 -0.266 0.168 -0.588v -3.682c 0 -0.266 -0.042 -0.434 -0.14 -0.49c -0.098 -0.056 -0.406 -0.084 -0.924 -0.084v -0.532l 1.61 0.042c 0.588 0.014 1.19 0 1.792 -0.042v 0.532h -0.336c -0.462 0 -0.756 0.042 -0.854 0.112c -0.098 0.07 -0.14 0.238 -0.14 0.49v 2.114c 0 0.602 0.112 1.148 0.322 1.61c 0.28 0.602 0.686 0.91 1.232 0.924c -0.14 -0.14 -0.21 -0.308 -0.21 -0.504c 0 -0.434 0.21 -0.644 0.644 -0.644c 0.378 0 0.644 0.294 0.644 0.658Z "/></symbol><symbol id="g60A5B853D9D71DDF17C0871AB1C87AE0" overflow="visible"><path d="M 0 0m 6.762 1.274v 0.826h -0.448v -0.826c 0 -0.546 -0.154 -0.826 -0.448 -0.826c -0.28 0 -0.448 0.35 -0.448 0.63v 2.758c 0 0.49 -0.056 0.854 -0.154 1.106c -0.336 0.826 -1.302 1.33 -2.282 1.33c -1.078 0 -2.142 -0.602 -2.142 -1.61c 0 -0.462 0.238 -0.7 0.7 -0.7c 0.462 0 0.686 0.224 0.686 0.686c 0 0.406 -0.21 0.644 -0.644 0.686c 0.308 0.35 0.77 0.532 1.372 0.532c 0.868 0 1.4 -0.798 1.4 -1.708v -0.462c -1.092 -0.07 -1.918 -0.238 -2.492 -0.504c -0.938 -0.434 -1.414 -1.036 -1.414 -1.834c 0 -0.364 0.14 -0.672 0.406 -0.91c 0.448 -0.406 1.064 -0.602 1.848 -0.602c 0.826 0 1.414 0.35 1.778 1.064c 0.098 -0.532 0.49 -0.994 1.092 -0.994c 0.742 0 1.19 0.588 1.19 1.358Z m -3.962 -1.022c -0.644 0 -1.176 0.476 -1.176 1.12c 0 1.302 1.358 1.862 2.73 1.932v -1.33c 0 -0.938 -0.616 -1.722 -1.554 -1.722Z "/></symbol><symbol id="g61A0AD53106A9F7E6A8D4E85F0BAD67D" overflow="visible"><path d="M 0 0m 4.648 1.764v 0.84h -0.448v -0.812c 0 -0.7 -0.252 -1.484 -0.868 -1.484c -0.574 0 -0.854 0.476 -0.854 1.428v 3.794h 1.946v 0.532h -1.946v 2.548h -0.448c -0.014 -0.462 -0.056 -0.868 -0.154 -1.232c -0.238 -0.924 -0.784 -1.4 -1.61 -1.442v -0.406h 1.162v -3.766c 0 -0.826 0.252 -1.358 0.742 -1.624c 0.378 -0.196 0.728 -0.294 1.078 -0.294c 0.924 0 1.4 0.924 1.4 1.918Z "/></symbol><symbol id="g1462BC444B9152D77B353A83A1EDE004" overflow="visible"><path d="M 0 0m 3.486 -0.154c 0.868 0 1.596 0.308 2.198 0.924c 0.602 0.616 0.91 1.358 0.91 2.226c 0 0.882 -0.294 1.652 -0.882 2.296c -0.588 0.644 -1.33 0.98 -2.212 0.98c -0.882 0 -1.61 -0.336 -2.212 -0.98c -0.602 -0.644 -0.896 -1.414 -0.896 -2.296c 0 -0.868 0.294 -1.61 0.896 -2.226c 0.602 -0.616 1.344 -0.924 2.198 -0.924Z m 0.014 0.448c -0.672 0 -1.176 0.294 -1.526 0.896c -0.224 0.392 -0.336 1.036 -0.336 1.918c 0 0.854 0.112 1.47 0.322 1.862c 0.336 0.602 0.84 0.896 1.526 0.896c 0.658 0 1.162 -0.294 1.512 -0.868c 0.238 -0.392 0.35 -1.022 0.35 -1.89c 0 -1.624 -0.476 -2.814 -1.848 -2.814Z "/></symbol><symbol id="gCC18E54593B8DDCB9AFE52AB3FF44B1C" overflow="visible"><path d="M 0 0m 5.236 -0.154l 2.142 0.154v 0.532c -0.504 0 -0.798 0.028 -0.91 0.112c -0.112 0.084 -0.168 0.294 -0.168 0.616v 8.456l -2.086 -0.154v -0.532c 0.49 0 0.798 -0.042 0.91 -0.126c 0.112 -0.084 0.154 -0.28 0.154 -0.602v -2.842c -0.448 0.518 -1.008 0.77 -1.68 0.77c -0.868 0 -1.61 -0.308 -2.212 -0.938c -0.602 -0.63 -0.91 -1.386 -0.91 -2.268c 0 -0.854 0.28 -1.596 0.854 -2.226c 0.574 -0.63 1.274 -0.952 2.128 -0.952c 0.714 0 1.316 0.266 1.778 0.812Z m -1.582 5.964c 0.602 0 1.092 -0.266 1.442 -0.798c 0.098 -0.154 0.14 -0.308 0.14 -0.49v -2.828c 0 -0.182 -0.042 -0.336 -0.14 -0.49c -0.392 -0.63 -0.924 -0.938 -1.582 -0.938c -0.574 0 -1.036 0.28 -1.4 0.854c -0.252 0.42 -0.378 1.05 -0.378 1.89c 0 1.526 0.518 2.8 1.918 2.8Z "/></symbol><symbol id="gD6BBEF219BB5A8B12BF6CE642665027E" overflow="visible"><path d="M 0 0m 2.716 8.414c 0 0.42 -0.35 0.784 -0.77 0.784c -0.42 0 -0.784 -0.364 -0.784 -0.784c 0 -0.42 0.35 -0.798 0.77 -0.798c 0.434 0 0.784 0.364 0.784 0.798Z m -0.714 -8.372l 1.456 -0.042v 0.546c -0.462 0 -0.742 0.028 -0.826 0.084c -0.084 0.056 -0.112 0.21 -0.112 0.462v 5.138l -2.002 -0.168v -0.532c 0.462 0 0.756 -0.042 0.854 -0.112c 0.098 -0.07 0.14 -0.266 0.14 -0.588v -3.724c 0 -0.266 -0.042 -0.434 -0.14 -0.49c -0.098 -0.056 -0.406 -0.07 -0.91 -0.07v -0.546Z "/></symbol></defs></svg>