<svg viewBox="0 0 159.714222222 17.678" width="159.714222222pt" height="17.678pt" xmlns="http://www.w3.org/2000/svg" xmlns:xlink="http://www.w3.org/1999/xlink" xmlns:h5="http://www.w3.org/1999/xhtml"><g transform="matrix(1 0 0 -1 2 12.024)"><use xlink:href="#g26E2D801567A35C063213BBB66DBCED7" x="0" y="0" fill="#000000" fill-rule="nonzero"/><use xlink:href="#g984F24CAC88AA01BC33F53EB695B3085" x="10.5" y="0" fill="#000000" fill-rule="nonzero"/><use xlink:href="#g233B6C4B3ED90EEDDFD81AD38EAC9EBC" x="14.784" y="0" fill="#000000" fill-rule="nonzero"/></g><g transform="matrix(1 0 0 -1 27.48 15.482)"><use xlink:href="#g6E4B788B89D4FB5EF77A652D9F73A581" x="0" y="0" fill="#000000" fill-rule="nonzero"/></g><g transform="matrix(1 0 0 -1 36.112088889 12.024)"><use xlink:href="#gC3F3E1667FCC0DC2E5A3A0D89DD87009" x="0" y="0" fill="#000000" fill-rule="nonzero"/></g><g transform="matrix(1 0 0 -1 50.892977778 12.024)"><use xlink:href="#gFEC259F3342A2C6EF417E1AADF6DB073" x="0" y="0" fill="#000000" fill-rule="nonzero"/></g><g transform="matrix(1 0 0 -1 58.816977778 15.482)"><use xlink:href="#g6D205525BFC99B1A240D1AC7493CC53A" x="0" y="0" fill="#000000" fill-rule="nonzero"/></g><g transform="matrix(1 0 0 -1 68.288288889 12.024)"><use xlink:href="#gE154EE0B077AC7A936AB0CCCBC3A4CF1" x="0" y="0" fill="#000000" fill-rule="nonzero"/></g><g transform="matrix(1 0 0 -1 82.2914 12.024)"><use xlink:href="#gFEC259F3342A2C6EF417E1AADF6DB073" x="0" y="0" fill="#000000" fill-rule="nonzero"/></g><g transform="matrix(1 0 0 -1 90.2154 15.482)"><use xlink:href="#gEA9D02AB6C055046EF5453443C0C87D1" x="0" y="0" fill="#000000" fill-rule="nonzero"/></g><g transform="matrix(1 0 0 -1 96.5756 12.024)"><use xlink:href="#g7129BEE3ACEBBD49F72EEB2D697C903B" x="0" y="0" fill="#000000" fill-rule="nonzero"/><use xlink:href="#g469B96F5D7C5C6B1AC9B4676DB584F38" x="7.784" y="0" fill="#000000" fill-rule="nonzero"/><use xlink:href="#g233B6C4B3ED90EEDDFD81AD38EAC9EBC" x="17.318" y="0" fill="#000000" fill-rule="nonzero"/></g><g transform="matrix(1 0 0 -1 124.5896 15.482)"><use xlink:href="#g6E4B788B89D4FB5EF77A652D9F73A581" x="0" y="0" fill="#000000" fill-rule="nonzero"/></g><g transform="matrix(1 0 0 -1 132.443911111 12.024)"><use xlink:href="#gE154EE0B077AC7A936AB0CCCBC3A4CF1" x="0" y="0" fill="#000000" fill-rule="nonzero"/></g><g transform="matrix(1 0 0 -1 146.447022222 12.024)"><use xlink:href="#g2A5263A5761B0C09ED77630FB9DB86A7" x="0" y="0" fill="#000000" fill-rule="nonzero"/></g><g transform="matrix(1 0 0 -1 152.971022222 15.482)"><use xlink:href="#g6E4B788B89D4FB5EF77A652D9F73A581" x="0" y="0" fill="#000000" fill-rule="nonzero"/></g><defs><symbol id="g26E2D801567A35C063213BBB66DBCED7" overflow="visible"><path d="M 0 0m 8.162 0.042l 1.876 -0.042v 0.546h -0.308c -0.35 0 -0.588 0.014 -0.686 0.042c -0.21 0.07 -0.35 0.224 -0.434 0.462l -2.996 8.666c -0.056 0.182 -0.154 0.308 -0.364 0.308c -0.182 0 -0.308 -0.098 -0.378 -0.308l -2.87 -8.288c -0.196 -0.574 -0.714 -0.882 -1.554 -0.896v -0.532l 1.47 0.042l 1.638 -0.042v 0.546c -0.686 0 -1.036 0.21 -1.036 0.644c 0 0.098 0.014 0.154 0.028 0.182l 0.63 1.778h 3.332l 0.714 -2.072c 0.028 -0.084 0.042 -0.14 0.042 -0.182c 0 -0.238 -0.378 -0.35 -1.148 -0.35v -0.546c 0.588 0.042 1.274 0.056 2.044 0.042Z m -3.332 7.924l 1.484 -4.27h -2.954Z "/></symbol><symbol id="g984F24CAC88AA01BC33F53EB695B3085" overflow="visible"><path d="M 0 0m 3.71 9.87c -1.246 0 -2.17 -1.008 -2.17 -2.254v -1.54h -1.078v -0.532h 1.078v -4.438c 0 -0.266 -0.042 -0.434 -0.14 -0.49c -0.098 -0.056 -0.406 -0.07 -0.924 -0.07v -0.546l 1.61 0.042c 0.588 0.014 1.19 0 1.792 -0.042v 0.546h -0.336c -0.462 0 -0.756 0.028 -0.854 0.098c -0.098 0.07 -0.14 0.238 -0.14 0.49v 4.41h 1.568v 0.532h -1.61v 1.554c 0 0.84 0.434 1.82 1.204 1.82c 0.112 0 0.21 -0.014 0.308 -0.042c -0.21 -0.112 -0.322 -0.308 -0.322 -0.574c 0 -0.434 0.21 -0.658 0.644 -0.658c 0.434 0 0.658 0.224 0.658 0.672c 0 0.63 -0.658 1.022 -1.288 1.022Z "/></symbol><symbol id="g233B6C4B3ED90EEDDFD81AD38EAC9EBC" overflow="visible"><path d="M 0 0m 5.614 0c 1.246 0 2.268 0.476 3.094 1.442c 0.798 0.91 1.19 2.002 1.19 3.262c 0 1.288 -0.392 2.408 -1.162 3.346c -0.826 1.008 -1.876 1.512 -3.122 1.512h -5.124v -0.546h 0.392c 0.49 0 0.784 -0.042 0.882 -0.112c 0.098 -0.07 0.154 -0.224 0.154 -0.476v -7.294c 0 -0.252 -0.056 -0.42 -0.154 -0.49c -0.098 -0.07 -0.392 -0.098 -0.882 -0.098h -0.392v -0.546Z m -0.378 0.546h -1.4c -0.546 0 -0.616 -0.014 -0.616 0.49v 7.49c 0 0.504 0.07 0.49 0.616 0.49h 1.386c 1.036 0 1.862 -0.42 2.478 -1.26c 0.462 -0.658 0.7 -1.666 0.7 -3.052c 0 -2.45 -0.924 -4.158 -3.164 -4.158Z "/></symbol><symbol id="g6E4B788B89D4FB5EF77A652D9F73A581" overflow="visible"><path d="M 0 0m 3.185 6.0858c 0 0.2352 -0.1862 0.4116 -0.4214 0.4116c -0.294 0 -0.5782 -0.2744 -0.5782 -0.5684c 0 -0.2352 0.1862 -0.4116 0.4214 -0.4116c 0.294 0 0.5782 0.2744 0.5782 0.5684Z m -1.3034 -1.7346c -0.4606 0 -0.8232 -0.2352 -1.0878 -0.7056c -0.2254 -0.392 -0.3332 -0.6664 -0.3332 -0.8232c 0 -0.1078 0.0686 -0.1568 0.196 -0.1568c 0.1078 0 0.1764 0.0588 0.2156 0.1764c 0.2254 0.7742 0.5488 1.1564 0.98 1.1564c 0.1372 0 0.2058 -0.098 0.2058 -0.3038c 0 -0.1274 -0.098 -0.441 -0.294 -0.9506l -0.6076 -1.5582c -0.0588 -0.1568 -0.0882 -0.294 -0.0882 -0.4214c 0 -0.5096 0.441 -0.8624 0.9506 -0.8624c 0.4606 0 0.8134 0.2352 1.078 0.7154c 0.2254 0.392 0.3332 0.6566 0.3332 0.8036c 0 0.1078 -0.0686 0.1666 -0.196 0.1666c -0.0588 -0.0098 -0.1274 -0.0588 -0.196 -0.1568c -0.0098 -0.0098 -0.0196 -0.0294 -0.0196 -0.0392c -0.2254 -0.7546 -0.5488 -1.1368 -0.9702 -1.1368c -0.1372 0 -0.2058 0.098 -0.2058 0.294c 0 0.147 0.049 0.3528 0.1568 0.6076l 0.7742 2.009c 0.0392 0.1078 0.0588 0.2156 0.0588 0.3234c 0 0.5096 -0.441 0.8624 -0.9506 0.8624Z "/></symbol><symbol id="gC3F3E1667FCC0DC2E5A3A0D89DD87009" overflow="visible"><path d="M 0 0m 9.772 5.138h -8.652c -0.224 0 -0.336 -0.112 -0.336 -0.322c 0 -0.21 0.112 -0.322 0.336 -0.322h 8.652c 0.224 0 0.336 0.112 0.336 0.322c 0 0.168 -0.154 0.322 -0.336 0.322Z m 0 -2.632h -8.652c -0.224 0 -0.336 -0.112 -0.336 -0.322c 0 -0.21 0.112 -0.322 0.336 -0.322h 8.652c 0.224 0 0.336 0.112 0.336 0.322c 0 0.182 -0.154 0.322 -0.336 0.322Z "/></symbol><symbol id="gFEC259F3342A2C6EF417E1AADF6DB073" overflow="visible"><path d="M 0 0m 5.978 9.884c -1.806 0 -3.01 -2.142 -3.43 -3.836l -2.128 -8.54c 0 -0.154 0.07 -0.224 0.196 -0.224h 0.07c 0.098 0 0.168 0.042 0.182 0.14l 0.896 3.612c 0.308 -0.812 0.91 -1.218 1.806 -1.218c 0.868 0 1.666 0.266 2.38 0.812c 0.994 0.742 1.498 1.708 1.498 2.87c 0 0.938 -0.322 1.638 -0.966 2.1c 0.798 0.49 1.302 1.12 1.484 1.876c 0.042 0.182 0.07 0.364 0.07 0.518c 0 1.162 -0.938 1.89 -2.058 1.89Z m -1.694 -4.298c 0.07 0.042 0.322 0.056 0.728 0.056c 0.098 0 0.182 -0.014 0.28 -0.028c -0.14 -0.028 -0.266 -0.042 -0.392 -0.042h -0.252c -0.154 0 -0.28 0 -0.364 0.014Z m -2.212 -3.654c 0 0.224 0.028 0.448 0.084 0.672l 0.826 3.36c 0.378 1.512 1.386 3.486 2.982 3.486c 0.798 0 1.19 -0.406 1.19 -1.204c 0 -0.196 -0.028 -0.42 -0.098 -0.686c -0.196 -0.784 -0.56 -1.344 -1.106 -1.666c -0.308 0.112 -0.616 0.168 -0.924 0.168c -0.616 0 -1.246 -0.014 -1.246 -0.518c 0 -0.098 0.042 -0.182 0.112 -0.238c 0.126 -0.098 0.448 -0.154 0.994 -0.154c 0.35 0 0.7 0.056 1.022 0.168c 0.378 -0.308 0.574 -0.784 0.574 -1.428c 0 -0.35 -0.056 -0.756 -0.168 -1.19c -0.322 -1.26 -1.274 -2.464 -2.73 -2.464c -0.952 0 -1.512 0.714 -1.512 1.694Z "/></symbol><symbol id="g6D205525BFC99B1A240D1AC7493CC53A" overflow="visible"><path d="M 0 0m 5.0568 3.1262c 0 1.1074 -0.196 1.9502 -0.5782 2.5284c -0.3136 0.49 -0.9408 0.8526 -1.6954 0.8526c -0.3136 0 -0.5978 -0.049 -0.8428 -0.1568c -1.078 -0.4508 -1.4308 -1.7052 -1.4308 -3.2242c 0 -0.3332 0.0196 -0.6468 0.049 -0.9506c 0.1666 -1.2838 0.7644 -2.3716 2.2246 -2.3716c 0.3136 0 0.5978 0.049 0.8428 0.1568c 1.078 0.441 1.4308 1.666 1.4308 3.1654Z m -1.1172 2.1756c 0.1078 -0.3626 0.1666 -1.0388 0.1666 -2.0482c 0 -0.9604 -0.0392 -1.6366 -0.1274 -2.0384c -0.1176 -0.5782 -0.5292 -1.0584 -1.1956 -1.0584c -0.245 0 -0.49 0.0784 -0.7154 0.245c -0.3038 0.2254 -0.49 0.6664 -0.5684 1.3426c -0.0294 0.2254 -0.0392 0.7252 -0.0392 1.5092c 0 0.9506 0.049 1.6072 0.147 1.96c 0.1666 0.6272 0.5586 0.9408 1.176 0.9408c 0.588 0 1.0192 -0.3822 1.1564 -0.8526Z "/></symbol><symbol id="gE154EE0B077AC7A936AB0CCCBC3A4CF1" overflow="visible"><path d="M 0 0m 9.772 3.836h -3.99v 3.99c 0 0.224 -0.112 0.336 -0.336 0.336c -0.224 0 -0.336 -0.112 -0.336 -0.336v -3.99h -3.99c -0.224 0 -0.336 -0.112 -0.336 -0.336c 0 -0.224 0.112 -0.336 0.336 -0.336h 3.99v -3.99c 0 -0.224 0.112 -0.336 0.336 -0.336c 0.224 0 0.336 0.112 0.336 0.336v 3.99h 3.99c 0.224 0 0.336 0.112 0.336 0.336c 0 0.182 -0.154 0.336 -0.336 0.336Z "/></symbol><symbol id="gEA9D02AB6C055046EF5453443C0C87D1" overflow="visible"><path d="M 0 0m 2.9694 6.5072c -0.4214 -0.4116 -1.0486 -0.6174 -1.9012 -0.6174v -0.4312c 0.5782 0 1.0388 0.0882 1.3916 0.2548v -4.8804c 0 -0.1274 -0.0098 -0.2058 -0.0392 -0.245c -0.049 -0.1078 -0.343 -0.1666 -0.882 -0.1666h -0.4018v -0.4214l 1.7444 0.0392l 1.7542 -0.0392v 0.4214h -0.4018c -0.539 0 -0.833 0.0588 -0.8918 0.1666c -0.0196 0.0392 -0.0294 0.1176 -0.0294 0.245v 5.3606c 0 0.2646 -0.0392 0.3136 -0.343 0.3136Z "/></symbol><symbol id="g7129BEE3ACEBBD49F72EEB2D697C903B" overflow="visible"><path d="M 0 0m 3.528 9.366c 1.498 0 2.38 -0.952 2.632 -2.842c 0.014 -0.14 0.098 -0.21 0.224 -0.21c 0.154 0 0.224 0.126 0.224 0.378v 2.786c 0 0.266 -0.07 0.392 -0.196 0.392c -0.084 0 -0.168 -0.07 -0.252 -0.21l -0.448 -0.728c -0.616 0.588 -1.176 0.938 -2.198 0.938c -1.526 0 -2.73 -1.232 -2.73 -2.744c 0 -1.288 0.84 -2.24 1.834 -2.59l 1.82 -0.448c 0.938 -0.238 1.554 -0.882 1.554 -1.932c 0 -1.05 -0.728 -1.918 -1.778 -1.918c -1.834 0 -2.912 1.036 -2.982 2.814c 0 0.126 -0.07 0.196 -0.21 0.196c -0.154 0 -0.238 -0.126 -0.238 -0.392v -2.772c 0 -0.266 0.07 -0.392 0.21 -0.392c 0.084 0 0.168 0.07 0.252 0.21l 0.448 0.728c 0.602 -0.63 1.442 -0.938 2.534 -0.938c 0.798 0 1.47 0.294 1.988 0.868c 0.518 0.574 0.77 1.26 0.77 2.072c 0 0.658 -0.196 1.26 -0.574 1.806c -0.378 0.546 -0.896 0.882 -1.526 1.036l -1.764 0.434c -0.742 0.168 -1.344 0.826 -1.344 1.708c 0 0.98 0.77 1.75 1.75 1.75Z "/></symbol><symbol id="g469B96F5D7C5C6B1AC9B4676DB584F38" overflow="visible"><path d="M 0 0m 5.53 4.368c 0.798 0 1.512 0.224 2.142 0.672c 0.714 0.504 1.064 1.134 1.064 1.89c 0 0.798 -0.364 1.456 -1.092 1.96c -0.644 0.448 -1.386 0.672 -2.226 0.672h -4.928v -0.546h 0.392c 0.49 0 0.784 -0.042 0.882 -0.112c 0.098 -0.07 0.154 -0.224 0.154 -0.476v -7.294c 0 -0.252 -0.056 -0.42 -0.154 -0.49c -0.098 -0.07 -0.392 -0.098 -0.882 -0.098h -0.392v -0.546c 0.364 0.028 1.064 0.042 2.086 0.042c 1.036 0 1.736 -0.014 2.1 -0.042v 0.546h -0.392c -0.49 0 -0.784 0.028 -0.882 0.098c -0.098 0.07 -0.154 0.238 -0.154 0.49v 3.234Z m -1.694 4.648h 1.232c 0.406 0 0.756 -0.056 1.05 -0.154c 0.798 -0.294 1.078 -0.882 1.078 -1.932c 0 -0.392 -0.042 -0.728 -0.14 -1.008c -0.238 -0.7 -0.994 -1.078 -1.988 -1.078h -1.862v 3.682c 0 0.504 0.084 0.49 0.63 0.49Z "/></symbol><symbol id="g2A5263A5761B0C09ED77630FB9DB86A7" overflow="visible"><path d="M 0 0m 6.006 5.502c 0 0.168 -0.182 0.35 -0.574 0.546c -0.392 0.196 -0.812 0.294 -1.246 0.294c -0.686 0 -1.358 -0.168 -1.988 -0.49c -0.756 -0.392 -1.134 -0.91 -1.134 -1.54c 0 -0.364 0.168 -0.686 0.504 -0.966c -0.574 -0.35 -1.204 -1.036 -1.204 -1.862c 0 -1.148 1.092 -1.792 2.296 -1.792c 0.686 0 1.26 0.154 1.722 0.448c 0.602 0.378 0.91 0.728 0.91 1.022c 0 0.126 -0.07 0.196 -0.21 0.196c -0.07 0 -0.126 -0.042 -0.182 -0.126c -0.35 -0.616 -0.896 -0.798 -2.114 -0.798c -0.322 0 -0.63 0.028 -0.91 0.084c -0.518 0.098 -1.05 0.476 -1.05 1.05c 0 0.686 0.644 1.288 1.176 1.54c 0.308 -0.126 0.7 -0.182 1.176 -0.182c 0.77 0 1.162 0.168 1.162 0.49c 0 0.28 -0.35 0.42 -1.05 0.42c -0.476 0 -0.896 -0.084 -1.274 -0.252c -0.336 0.182 -0.504 0.42 -0.504 0.728c 0 0.434 0.336 0.784 0.994 1.022c 0.49 0.182 1.008 0.266 1.54 0.266c 0.462 0 0.882 -0.126 1.232 -0.378c 0.14 -0.098 0.238 -0.14 0.308 -0.14c 0.21 0 0.42 0.21 0.42 0.42Z m -2.716 -2.072c 0.154 0 0.294 -0.014 0.434 -0.042c -0.14 -0.028 -0.322 -0.042 -0.546 -0.042c -0.182 0 -0.35 0 -0.476 0.014c 0.182 0.042 0.378 0.07 0.588 0.07Z "/></symbol></defs></svg>